<?xml version="1.0" encoding="UTF-8"?>
<svg width="16px" height="16px" viewBox="0 0 16 16" version="1.1" xmlns="http://www.w3.org/2000/svg" xmlns:xlink="http://www.w3.org/1999/xlink">
    <g id="Page-1" stroke="none" stroke-width="1" fill="none" fill-rule="evenodd">
        <g id="名称未設定-1" fill="#000000" fill-rule="nonzero">
            <path d="M8,0 C3.63076923,0 0.0769230769,3.55384615 0.0769230769,7.92307692 C0.0769230769,12.2923077 3.63076923,15.8461538 8,15.8461538 C12.3692308,15.8461538 15.9230769,12.2923077 15.9230769,7.92307692 C15.9230769,3.55384615 12.3692308,0 8,0 Z M8,14.4615385 C4.4,14.4615385 1.46153846,11.5230769 1.46153846,7.92307692 C1.46153846,4.32307692 4.4,1.38461538 8,1.38461538 C11.6,1.38461538 14.5384615,4.32307692 14.5384615,7.92307692 C14.5384615,11.5230769 11.6,14.4615385 8,14.4615385 Z" id="Shape"></path>
            <polygon id="Shape" points="8 8.63076923 5.10769231 5.73846154 4.12307692 6.72307692 8 10.6 11.8769231 6.72307692 10.8923077 5.73846154"></polygon>
        </g>
    </g>
</svg>