<?xml version="1.0" encoding="UTF-8"?>
<svg width="35px" height="30px" viewBox="0 0 35 30" version="1.1" xmlns="http://www.w3.org/2000/svg" xmlns:xlink="http://www.w3.org/1999/xlink">
    <g id="Page-1" stroke="none" stroke-width="1" fill="none" fill-rule="evenodd">
        <g id="001-photo-camera" fill="#000000" fill-rule="nonzero">
            <path d="M33.1991597,5.99023109 C32.2993487,5.09060924 31.2139916,4.64067227 29.9423319,4.64067227 L25.9116807,4.64067227 L24.9941597,2.19365546 C24.7661345,1.60594538 24.3494748,1.09903361 23.7433613,0.672983193 C23.1375,0.247121849 22.5167647,0.0340336134 21.8809034,0.0340336134 L12.6678151,0.0340336134 C12.0320168,0.0340336134 11.4111555,0.247121849 10.8052941,0.672983193 C10.1994328,1.09903361 9.78271008,1.60594538 9.5547479,2.19365546 L8.63710084,4.64067227 L4.60644958,4.64067227 C3.33466387,4.64067227 2.2492437,5.09060924 1.34943277,5.99023109 C0.449810924,6.88991597 0,7.97546218 0,9.24712185 L0,25.3697899 C0,26.6415126 0.449810924,27.7271849 1.34943277,28.6266176 C2.2492437,29.5264286 3.33472689,29.9763655 4.60644958,29.9763655 L29.9418908,29.9763655 C31.2135504,29.9763655 32.2988445,29.5264286 33.1987185,28.6266176 C34.0982773,27.7271849 34.5482143,26.6415126 34.5482143,25.3697899 L34.5482143,9.24712185 C34.5484664,7.97546218 34.0985294,6.88991597 33.1991597,5.99023109 Z M22.9692857,23.0037605 C21.3918277,24.5812815 19.4936345,25.3702311 17.2742017,25.3702311 C15.0547689,25.3702311 13.1567017,24.5812815 11.5791176,23.0037605 C10.0015336,21.4264916 9.21289916,19.5278571 9.21289916,17.3089286 C9.21289916,15.0893067 10.0017857,13.1913025 11.5791176,11.6137185 C13.1565126,10.0361345 15.0548319,9.2475 17.2742017,9.2475 C19.4935714,9.2475 21.3918277,10.0363235 22.9692857,11.6137185 C24.5468067,13.1911134 25.3355672,15.0893067 25.3355672,17.3089286 C25.3355672,19.5278571 24.5468697,21.4263025 22.9692857,23.0037605 Z" id="Shape"></path>
            <path d="M17.2742017,12.1262395 C15.8466176,12.1262395 14.6260084,12.6330882 13.6123109,13.6469118 C12.5986134,14.6606092 12.0917647,15.8810294 12.0917647,17.3089286 C12.0917647,18.7362605 12.5986134,19.9568697 13.6123109,20.9705672 C14.6260084,21.9840756 15.8465546,22.4909244 17.2742017,22.4909244 C18.7015966,22.4909244 19.9223319,21.9840756 20.9360294,20.9705672 C21.9497269,19.9568697 22.4566387,18.7363235 22.4566387,17.3089286 C22.4566387,15.8810924 21.9497269,14.6606723 20.9360294,13.6469118 C19.922395,12.6331513 18.7015966,12.1262395 17.2742017,12.1262395 Z" id="Shape"></path>
        </g>
    </g>
</svg>