<?xml version="1.0" encoding="UTF-8"?>
<svg width="24px" height="24px" viewBox="0 0 24 24" version="1.1" xmlns="http://www.w3.org/2000/svg" xmlns:xlink="http://www.w3.org/1999/xlink">
    <g id="Page-1" stroke="none" stroke-width="1" fill="none" fill-rule="evenodd">
        <g id="download" fill="#000000" fill-rule="nonzero">
            <path d="M20.3696,15.284 L20.3696,20.7624 L3.612,20.7624 L3.612,15.284 L0.3912,15.284 L0.3912,22.3728 C0.3912,23.2616 1.1112,23.9824 2.004,23.9824 L21.9776,23.9824 C22.8696,23.9824 23.5904,23.2624 23.5904,22.3728 L23.5904,15.284 L20.3696,15.284 Z" id="Shape"></path>
            <path d="M11.696,14.7408 L7.0848,9.1688 C7.0848,9.1688 6.3832,8.5064 7.144,8.5064 C7.9048,8.5064 9.7424,8.5064 9.7424,8.5064 C9.7424,8.5064 9.7424,8.0608 9.7424,7.3736 C9.7424,5.4144 9.7424,1.8488 9.7424,0.3952 C9.7424,0.3952 9.6392,-1.77635684e-15 10.2344,-1.77635684e-15 C10.8344,-1.77635684e-15 13.4624,-1.77635684e-15 13.892,-1.77635684e-15 C14.3208,-1.77635684e-15 14.3112,0.3328 14.3112,0.3328 C14.3112,1.7424 14.3112,5.4312 14.3112,7.3264 C14.3112,7.9408 14.3112,8.3392 14.3112,8.3392 C14.3112,8.3392 15.7848,8.3392 16.7096,8.3392 C17.6328,8.3392 16.9376,9.0328 16.9376,9.0328 C16.9376,9.0328 13.0144,14.2408 12.4672,14.7872 C12.0736,15.1832 11.696,14.7408 11.696,14.7408 Z" id="Shape"></path>
        </g>
    </g>
</svg>