<?xml version="1.0" encoding="UTF-8"?>
<svg width="16px" height="16px" viewBox="0 0 16 16" version="1.1" xmlns="http://www.w3.org/2000/svg" xmlns:xlink="http://www.w3.org/1999/xlink">
    <g id="Page-1" stroke="none" stroke-width="1" fill="none" fill-rule="evenodd">
        <g id="001-chevron-up" fill="#DD007F" fill-rule="nonzero">
            <path d="M0.96157193,9.19983158 C1.06840702,9.30661053 1.19135439,9.36005614 1.33024561,9.36005614 C1.46913684,9.36005614 1.59208421,9.30661053 1.6989193,9.19983158 L7.99809123,2.90054737 L14.2974877,9.19983158 C14.4042667,9.30661053 14.5272702,9.36005614 14.6659368,9.36005614 C14.8050526,9.36005614 14.928,9.30661053 15.0347789,9.19983158 L15.8361263,8.39831579 C15.9429053,8.29153684 15.9959579,8.16853333 15.9959579,8.02986667 C15.9959579,7.8909193 15.9425684,7.76797193 15.8361263,7.66119298 L8.36648421,0.19194386 C8.2597614,0.0849403509 8.13698246,0.0317754386 7.99809123,0.0317754386 C7.8592,0.0317754386 7.73619649,0.0851087719 7.62941754,0.19194386 L0.160336842,7.66113684 C0.0533333333,7.76797193 0,7.89075088 0,8.02997895 C0,8.16853333 0.0535017544,8.2914807 0.160336842,8.39831579 L0.96157193,9.19983158 Z" id="Shape"></path>
            <path d="M8.36648421,6.34694737 C8.2597614,6.23994386 8.13698246,6.18661053 7.99809123,6.18661053 C7.8592,6.18661053 7.73619649,6.24011228 7.62941754,6.34694737 L0.160336842,13.8161404 C0.0533333333,13.9229754 0,14.0458667 0,14.1849825 C0,14.3237614 0.0535017544,14.4466526 0.160336842,14.5534877 L0.96157193,15.3549474 C1.06840702,15.4617825 1.19135439,15.5148351 1.33024561,15.5148351 C1.46913684,15.5148351 1.59208421,15.4614456 1.6989193,15.3549474 L7.99809123,9.05549474 L14.2974877,15.3549474 C14.4042667,15.4617825 14.5272702,15.5150596 14.6659368,15.5150596 C14.8050526,15.5150596 14.928,15.4618386 15.0347789,15.3549474 L15.8361263,14.5534877 C15.9429053,14.4466526 15.9959579,14.3237053 15.9959579,14.1849825 C15.9959579,14.0458667 15.9425684,13.9229754 15.8361263,13.8161404 L8.36648421,6.34694737 Z" id="Shape"></path>
        </g>
    </g>
</svg>