<?xml version="1.0" encoding="UTF-8"?>
<svg width="16px" height="11px" viewBox="0 0 16 11" version="1.1" xmlns="http://www.w3.org/2000/svg" xmlns:xlink="http://www.w3.org/1999/xlink">
    <g id="Page-1" stroke="none" stroke-width="1" fill="none" fill-rule="evenodd">
        <g id="low" fill="#2BBEE2" fill-rule="nonzero">
            <path d="M15.6033438,7.07081348 L8.93076854,0.387955056 C8.66401798,0.13468764 8.35261124,0.00805393258 7.99676404,0.00805393258 C7.63404944,0.00805393258 7.32613034,0.134651685 7.07282697,0.387955056 L0.390040449,7.07081348 C0.129977528,7.33076854 0,7.64221124 0,8.00492584 C0,8.37454382 0.130121348,8.68242697 0.390040449,8.9287191 L1.15987416,9.69862472 C1.40631011,9.95857978 1.71430112,10.088809 2.08381124,10.088809 C2.4533573,10.088809 2.7612764,9.95861573 3.00774831,9.69862472 L7.99676404,4.71985618 L12.9858157,9.69851685 C13.232036,9.9584 13.539991,10.0887011 13.9098607,10.0887011 C14.2723596,10.0887011 14.5839101,9.9584 14.8437933,9.69851685 L15.6135551,8.92864719 C15.8667865,8.67541573 15.9934921,8.36746067 15.9934921,8.00485393 C15.9934921,7.64206742 15.8635506,7.33066067 15.6033438,7.07081348 Z" id="Shape"></path>
        </g>
    </g>
</svg>