<?xml version="1.0" encoding="UTF-8"?>
<svg width="16px" height="16px" viewBox="0 0 16 16" version="1.1" xmlns="http://www.w3.org/2000/svg" xmlns:xlink="http://www.w3.org/1999/xlink">
    <g id="Page-1" stroke="none" stroke-width="1" fill="none" fill-rule="evenodd">
        <g id="middle" fill="#0DB29C" fill-rule="nonzero">
            <path d="M14.9114533,3.97931264 C14.1968109,2.75523391 13.2274442,1.78605011 12.0030979,1.07157905 C10.778533,0.35714443 9.44174943,0 7.99172665,0 C6.54184966,0 5.20466515,0.35714443 3.98031891,1.07157905 C2.75589977,1.78594079 1.78653303,2.75512459 1.07189066,3.97931264 C0.357211845,5.20357358 0,6.54050573 0,7.98999977 C0,9.4395667 0.357321185,10.7762802 1.07178132,12.000614 C1.78638724,13.2246928 2.75575399,14.1938766 3.98017312,14.9084205 C5.20466515,15.6228187 6.54174032,15.9799995 7.99158087,15.9799995 C9.44142141,15.9799995 10.7786424,15.6228187 12.0030615,14.9084205 C13.2274077,14.1941316 14.196738,13.2246928 14.9113075,12.000614 C15.6257677,10.7763895 15.9829431,9.43949382 15.9829431,7.98999977 C15.9829795,6.54035997 15.6257677,5.20339138 14.9114533,3.97931264 Z M13.1841458,9.4566933 L12.1227153,10.5181421 C11.9907426,10.6498348 11.8347517,10.7157905 11.6544875,10.7157905 C11.4741503,10.7157905 11.3178679,10.6498348 11.1862597,10.5181421 L7.99158087,7.32410269 L4.79719362,10.5181421 C4.66540319,10.6498348 4.50933941,10.7157905 4.32896583,10.7157905 C4.14855581,10.7157905 3.99245558,10.6498348 3.8606287,10.5181421 L2.79930752,9.4566933 C2.66748064,9.3252557 2.60154897,9.16889341 2.60154897,8.98855388 C2.60154897,8.80846942 2.66748064,8.65232577 2.79930752,8.52037802 L7.52349886,3.79722401 C7.65532574,3.66542201 7.81135308,3.59957567 7.99172665,3.59957567 C8.17210023,3.59957567 8.32841913,3.66542201 8.459918,3.79722401 L13.1841458,8.52037802 C13.3158269,8.65232577 13.3818314,8.80843298 13.3818314,8.98855388 C13.3818314,9.16885698 13.3159727,9.32521926 13.1841458,9.4566933 Z" id="Shape"></path>
        </g>
    </g>
</svg>