<?xml version="1.0" encoding="UTF-8"?>
<svg width="20px" height="19px" viewBox="0 0 20 19" version="1.1" xmlns="http://www.w3.org/2000/svg" xmlns:xlink="http://www.w3.org/1999/xlink">
    <g id="Page-1" stroke="none" stroke-width="1" fill="none" fill-rule="evenodd">
        <g id="001-house-outline" fill="#FFFFFF" fill-rule="nonzero">
            <path d="M16.7030719,9.22388889 C16.3782353,9.22388889 16.1266667,9.47431373 16.1266667,9.80071895 L16.1266667,17.6799673 L12.0392484,17.6799673 L12.0392484,14.462549 C12.0392484,14.160719 11.7877124,13.8968627 11.4836275,13.8968627 L8.52823529,13.8968627 C8.20313725,13.8968627 7.94130719,14.1606863 7.94130719,14.462549 L7.94130719,17.6799673 L3.86418301,17.6799673 L3.86418301,10.0623203 C3.86418301,9.75820261 3.61287582,9.50558824 3.28777778,9.50558824 C2.98392157,9.50558824 2.73238562,9.75820261 2.73238562,10.0623203 L2.73238562,18.2568301 C2.73238562,18.560915 2.98392157,18.8135621 3.28777778,18.8135621 L8.52823529,18.8135621 C8.8320915,18.8135621 9.08362745,18.560915 9.08362745,18.2568301 L9.08362745,15.0393791 L10.9071895,15.0393791 L10.9071895,18.2568301 C10.9071895,18.560915 11.1587255,18.8135621 11.4836275,18.8135621 L16.7030719,18.8135621 C17.0069608,18.8135621 17.2584641,18.560915 17.2584641,18.2568301 L17.2584641,9.80075163 C17.2584641,9.47434641 17.0069608,9.22388889 16.7030719,9.22388889 Z" id="Shape"></path>
            <path d="M19.8366993,9.67330065 L15.2882026,5.10539216 L15.2882026,1.99081699 C15.2882026,1.66660131 15.0261438,1.41620915 14.7012745,1.41620915 C14.3971895,1.41620915 14.1456863,1.66663399 14.1456863,1.99081699 L14.1456863,3.96287582 L10.3936601,0.18869281 C10.2786928,0.0724183007 10.1421242,0.00980392157 10.0059477,0.00980392157 C9.84875817,0.00980392157 9.71238562,0.0746405229 9.59722222,0.18869281 L0.175196078,9.61068627 C-0.0508496732,9.83650327 -0.0658169935,10.1987255 0.175196078,10.4066667 C0.384705882,10.6481373 0.745588235,10.6324837 0.971633987,10.4066667 L10.0059477,1.39382353 L19.0192484,10.491634 C19.1131373,10.5855556 19.2497712,10.6392157 19.4279739,10.6392157 C19.5851634,10.6392157 19.7213072,10.5855556 19.8366993,10.491634 C20.0464052,10.2814706 20.0620588,9.90137255 19.8366993,9.67330065 Z" id="Shape"></path>
        </g>
    </g>
</svg>