<?xml version="1.0" encoding="UTF-8"?>
<svg width="23px" height="20px" viewBox="0 0 23 20" version="1.1" xmlns="http://www.w3.org/2000/svg" xmlns:xlink="http://www.w3.org/1999/xlink">
    <g id="Page-1" stroke="none" stroke-width="1" fill="none" fill-rule="evenodd">
        <g id="004-list" fill="#FFFFFF" fill-rule="nonzero">
            <path d="M2.43981481,4.89583333 C3.78703704,4.89583333 4.87962963,3.79861111 4.87962963,2.45601852 C4.87962963,1.11342593 3.78703704,0.0115740741 2.43981481,0.0115740741 C1.09259259,0.0115740741 0,1.1087963 0,2.45138889 C0,3.79398148 1.09722222,4.89583333 2.43981481,4.89583333 Z M2.43981481,1.14583333 C3.16203704,1.14583333 3.74537037,1.7337963 3.74537037,2.45138889 C3.74537037,3.16898148 3.15740741,3.75694444 2.43981481,3.75694444 C1.72222222,3.75694444 1.13425926,3.16898148 1.13425926,2.45138889 C1.13425926,1.7337963 1.72222222,1.14583333 2.43981481,1.14583333 Z" id="Shape"></path>
            <path d="M2.43981481,12.4328704 C3.78703704,12.4328704 4.87962963,11.3356481 4.87962963,9.99305556 C4.87962963,8.65046296 3.78703704,7.55324074 2.43981481,7.55324074 C1.09259259,7.55324074 0,8.64583333 0,9.99305556 C0,11.3402778 1.09722222,12.4328704 2.43981481,12.4328704 Z M2.43981481,8.6875 C3.16203704,8.6875 3.74537037,9.27546296 3.74537037,9.99305556 C3.74537037,10.7106481 3.15740741,11.2986111 2.43981481,11.2986111 C1.72222222,11.2986111 1.13425926,10.7152778 1.13425926,9.99305556 C1.13425926,9.27083333 1.72222222,8.6875 2.43981481,8.6875 Z" id="Shape"></path>
            <path d="M2.43981481,19.974537 C3.78703704,19.974537 4.87962963,18.8773148 4.87962963,17.5347222 C4.87962963,16.1875 3.78240741,15.0949074 2.43981481,15.0949074 C1.09722222,15.0949074 0,16.1921296 0,17.5347222 C0,18.8773148 1.09722222,19.974537 2.43981481,19.974537 Z M2.43981481,16.224537 C3.16203704,16.224537 3.74537037,16.8125 3.74537037,17.5300926 C3.74537037,18.2523148 3.15740741,18.8356481 2.43981481,18.8356481 C1.72222222,18.8356481 1.13425926,18.2476852 1.13425926,17.5300926 C1.13425926,16.8125 1.72222222,16.224537 2.43981481,16.224537 Z" id="Shape"></path>
            <path d="M8.14351852,3.02083333 L22.1018519,3.02083333 C22.4166667,3.02083333 22.6712963,2.7662037 22.6712963,2.45138889 C22.6712963,2.13657407 22.4166667,1.88194444 22.1018519,1.88194444 L8.14351852,1.88194444 C7.8287037,1.88194444 7.57407407,2.13657407 7.57407407,2.45138889 C7.57407407,2.7662037 7.8287037,3.02083333 8.14351852,3.02083333 Z" id="Shape"></path>
            <path d="M8.14351852,10.5625 L22.1018519,10.5625 C22.4166667,10.5625 22.6712963,10.3078704 22.6712963,9.99305556 C22.6712963,9.67824074 22.4166667,9.42361111 22.1018519,9.42361111 L8.14351852,9.42361111 C7.8287037,9.42361111 7.57407407,9.67824074 7.57407407,9.99305556 C7.57407407,10.3078704 7.8287037,10.5625 8.14351852,10.5625 Z" id="Shape"></path>
            <path d="M8.14351852,18.099537 L22.1018519,18.099537 C22.4166667,18.099537 22.6712963,17.8449074 22.6712963,17.5300926 C22.6712963,17.2152778 22.4166667,16.9606481 22.1018519,16.9606481 L8.14351852,16.9606481 C7.8287037,16.9606481 7.57407407,17.2152778 7.57407407,17.5300926 C7.57407407,17.8449074 7.8287037,18.099537 8.14351852,18.099537 Z" id="Shape"></path>
        </g>
    </g>
</svg>