<?xml version="1.0" encoding="UTF-8"?>
<svg width="22px" height="16px" viewBox="0 0 22 16" version="1.1" xmlns="http://www.w3.org/2000/svg" xmlns:xlink="http://www.w3.org/1999/xlink">
    <g id="Page-1" stroke="none" stroke-width="1" fill="none" fill-rule="evenodd">
        <g id="menu-options" fill="#FFFFFF" fill-rule="nonzero">
            <path d="M0.937931034,1.92182069 L20.9471448,1.92182069 C21.4630069,1.92182069 21.8850759,1.49975172 21.8850759,0.983889655 C21.8850759,0.468027586 21.4630069,0.0459586207 20.9471448,0.0459586207 L0.937931034,0.0459586207 C0.422068966,0.0459586207 0,0.468027586 0,0.983889655 C0,1.49975172 0.422068966,1.92182069 0.937931034,1.92182069 Z" id="Shape"></path>
            <path d="M0.937931034,8.95630345 L20.9471448,8.95630345 C21.4630069,8.95630345 21.8850759,8.53423448 21.8850759,8.01837241 C21.8850759,7.50251034 21.4630069,7.08044138 20.9471448,7.08044138 L0.937931034,7.08044138 C0.422068966,7.08044138 0,7.50251034 0,8.01837241 C0,8.53423448 0.422068966,8.95630345 0.937931034,8.95630345 Z" id="Shape"></path>
            <path d="M0.937931034,15.9907862 L20.9471448,15.9907862 C21.4630069,15.9907862 21.8850759,15.5687172 21.8850759,15.0528552 C21.8850759,14.5369931 21.4630069,14.1149241 20.9471448,14.1149241 L0.937931034,14.1149241 C0.422068966,14.1149241 0,14.5369931 0,15.0528552 C0,15.5687172 0.422068966,15.9907862 0.937931034,15.9907862 Z" id="Shape"></path>
        </g>
    </g>
</svg>