<?xml version="1.0" encoding="UTF-8"?>
<svg width="21px" height="21px" viewBox="0 0 21 21" version="1.1" xmlns="http://www.w3.org/2000/svg" xmlns:xlink="http://www.w3.org/1999/xlink">
    <g id="Page-1" stroke="none" stroke-width="1" fill="none" fill-rule="evenodd">
        <g id="003-user" fill="#FFFFFF" fill-rule="nonzero">
            <path d="M17.9147661,3.82837079 C16.0257212,1.93932584 13.5046537,0.9 10.829092,0.9 C8.15353015,0.9 5.63948521,1.93932584 3.75044027,3.82837079 C2.38105824,5.19775281 1.44004701,6.91825843 1.03976611,8.8002809 C0.646507683,10.6401685 0.772912177,12.536236 1.41195712,14.3058989 C1.52431667,14.6148876 1.86841779,14.7764045 2.17740656,14.6640449 C2.32487847,14.6078652 2.45128296,14.5025281 2.51448521,14.3550562 C2.58470993,14.2075843 2.5917324,14.0460674 2.53555263,13.8985955 C1.97375487,12.3466292 1.86139532,10.6682584 2.20549645,9.05308989 C2.55662004,7.39578652 3.38527173,5.87893258 4.5931369,4.67106742 C6.25746274,3.00674157 8.46954139,2.09382022 10.829092,2.09382022 C13.1886425,2.09382022 15.4007212,3.00674157 17.065047,4.67106742 C18.701283,6.30730337 19.6212268,8.48426966 19.6422942,10.8016854 C19.6703841,13.1120787 18.80662,15.3030899 17.2195414,16.9744382 L17.1563391,17.0446629 C17.1282493,17.0797753 17.0931369,17.1078652 17.065047,17.1429775 C13.6310582,20.5769663 8.03414813,20.5769663 4.60015937,17.1429775 C4.60015937,17.1359551 4.60015937,17.1219101 4.60015937,17.1148876 C4.60015937,17.0376404 4.60015937,16.9603933 4.60718184,16.8831461 C4.60718184,16.8691011 4.60718184,16.8550562 4.60718184,16.8410112 L4.60718184,16.7918539 C4.60718184,16.7426966 4.61420431,16.7005618 4.61420431,16.6514045 C4.61420431,16.6303371 4.61420431,16.6162921 4.62122678,16.5952247 L4.62824926,16.5320225 C4.62824926,16.4969101 4.63527173,16.4547753 4.6422942,16.4196629 C4.6422942,16.3985955 4.64931667,16.3775281 4.64931667,16.3564607 L4.65633914,16.3002809 C4.66336162,16.2651685 4.66336162,16.2300562 4.67038409,16.1949438 C4.67038409,16.1738764 4.67740656,16.152809 4.68442903,16.1247191 L4.6914515,16.0755618 C4.69847397,16.0404494 4.70549645,16.0053371 4.71251892,15.9702247 C4.71954139,15.9491573 4.71954139,15.9210674 4.72656386,15.9 L4.73358633,15.8578652 C4.74060881,15.8227528 4.74763128,15.7876404 4.75465375,15.7455056 C4.76167622,15.7244382 4.76869869,15.6963483 4.76869869,15.6752809 L4.77572117,15.647191 C4.78274364,15.6050562 4.79678858,15.5699438 4.80381105,15.5348315 C4.81083353,15.513764 4.817856,15.4856742 4.82487847,15.4646067 L4.83190094,15.4294944 C4.83892341,15.394382 4.85296836,15.3592697 4.85999083,15.3241573 C4.8670133,15.2960674 4.87403577,15.2679775 4.88808072,15.2398876 L4.89510319,15.2258427 C4.90914813,15.1837079 4.92319308,15.1485955 4.93021555,15.1064607 C4.94426049,15.0713483 4.95128296,15.0432584 4.96532791,15.0081461 C4.97937285,14.9730337 4.99341779,14.9308989 5.00746274,14.8957865 C5.02150768,14.8606742 5.03555263,14.8325843 5.0425751,14.7974719 C5.05662004,14.7623596 5.07066499,14.7202247 5.0917324,14.6851124 C5.10577735,14.6570225 5.11982229,14.6219101 5.13386723,14.5938202 C5.14791218,14.5587079 5.16897959,14.5235955 5.18302454,14.4814607 C5.19706948,14.4533708 5.21111442,14.4182584 5.22515937,14.3901685 C5.24622678,14.3550562 5.26027173,14.3199438 5.28133914,14.2848315 C5.29538409,14.2567416 5.30942903,14.2216292 5.33049645,14.1935393 C5.35156386,14.158427 5.36560881,14.1233146 5.38667622,14.0882022 C5.40072117,14.0601124 5.42178858,14.0320225 5.43583353,13.9969101 C5.45690094,13.9617978 5.47796836,13.9266854 5.49903577,13.891573 C5.52010319,13.8634831 5.53414813,13.8353933 5.55521555,13.8073034 C5.57628296,13.772191 5.59735038,13.7370787 5.61841779,13.7019663 C5.63948521,13.6738764 5.65353015,13.6457865 5.67459757,13.6176966 C5.69566499,13.5825843 5.72375487,13.5544944 5.74482229,13.519382 C5.7658897,13.4912921 5.78695712,13.4632022 5.80100206,13.4351124 C5.82206948,13.4 5.85015937,13.3719101 5.87122678,13.3367978 L5.87824926,13.3297753 C5.89931667,13.3016854 5.91336162,13.280618 5.93442903,13.2525281 C5.96251892,13.2174157 5.98358633,13.1893258 6.01167622,13.1542135 L6.01869869,13.147191 C6.03976611,13.1261236 6.06083353,13.0980337 6.08190094,13.0769663 C6.10999083,13.0488764 6.13808072,13.013764 6.1661706,12.9856742 L6.18021555,12.9716292 C6.19426049,12.9505618 6.21532791,12.9365169 6.22937285,12.9154494 C6.25746274,12.8873596 6.28555263,12.8522472 6.31364251,12.8241573 L6.32768746,12.8101124 C6.34875487,12.7890449 6.36279982,12.7679775 6.38386723,12.7539326 C6.41195712,12.7258427 6.43302454,12.7047753 6.46111442,12.6766854 L6.48920431,12.6485955 C6.50324926,12.6345506 6.52431667,12.6134831 6.53836162,12.5994382 C6.5664515,12.5713483 6.59454139,12.5502809 6.61560881,12.522191 L6.65072117,12.4870787 C6.66476611,12.4730337 6.68583353,12.4589888 6.69987847,12.4449438 C6.72796836,12.4238764 6.75605824,12.3957865 6.78414813,12.3747191 L6.82628296,12.3396067 C6.84032791,12.3255618 6.86139532,12.3115169 6.87544027,12.2974719 C6.90353015,12.2764045 6.93162004,12.2483146 6.9667324,12.2272472 L7.00886723,12.1921348 C7.02291218,12.1780899 7.03695712,12.1710674 7.05100206,12.1570225 C7.08611442,12.1289326 7.11420431,12.1078652 7.14931667,12.0867978 L7.1914515,12.0587079 C7.20549645,12.0446629 7.21954139,12.0376404 7.23358633,12.0235955 C7.26869869,11.9955056 7.31083353,11.9744382 7.34594588,11.9463483 L7.38808072,11.9182584 C7.40212566,11.911236 7.40914813,11.9042135 7.42319308,11.897191 C7.47937285,11.8620787 7.53555263,11.8269663 7.5917324,11.7918539 L7.61982229,11.777809 C7.68302454,11.7356742 7.75324926,11.7005618 7.8164515,11.6654494 C7.83049645,11.658427 7.84454139,11.6514045 7.85858633,11.644382 L7.90774364,11.6162921 C7.942856,11.5952247 7.98499083,11.5741573 8.02712566,11.5530899 C8.04819308,11.5460674 8.06223802,11.5320225 8.08330544,11.525 L8.10437285,11.5109551 C8.85577735,12.1851124 9.82487847,12.5573034 10.8361144,12.5573034 C11.8473504,12.5573034 12.809429,12.1851124 13.567856,11.5109551 C14.8810582,12.1570225 15.9625189,13.2735955 16.5453841,14.6078652 C16.6788111,14.9098315 17.0299346,15.0502809 17.3319009,14.9168539 C17.4793729,14.8536517 17.5917324,14.7342697 17.6479122,14.5867978 C17.704092,14.4393258 17.704092,14.277809 17.6408897,14.1303371 C16.9737549,12.6134831 15.8080245,11.3564607 14.3473504,10.5699438 C14.7335863,9.93089888 14.937238,9.20758427 14.937238,8.45617978 C14.937238,6.19494382 13.0973504,4.35505618 10.8361144,4.35505618 C10.5060582,4.35505618 10.2392043,4.62191011 10.2392043,4.95196629 C10.2392043,5.28202247 10.5060582,5.5488764 10.8361144,5.5488764 C12.437238,5.5488764 13.7363953,6.84803371 13.7363953,8.4491573 C13.7363953,9.16544944 13.4695414,9.85365169 12.9920133,10.3873596 L12.9849908,10.394382 C12.4302155,11.0053371 11.6507212,11.3564607 10.829092,11.3564607 C10.0215077,11.3564607 9.2420133,11.0123596 8.69426049,10.4154494 L8.67319308,10.3803371 L8.64510319,10.3662921 C8.17459757,9.83258427 7.92178858,9.15842697 7.92178858,8.45617978 C7.92178858,7.67668539 8.23077735,6.93932584 8.78555263,6.39157303 C8.89791218,6.27921348 8.96111442,6.13174157 8.96111442,5.97022472 C8.96111442,5.80870787 8.89791218,5.66123596 8.78555263,5.5488764 C8.67319308,5.43651685 8.52572117,5.37331461 8.36420431,5.37331461 C8.20268746,5.37331461 8.05521555,5.43651685 7.942856,5.5488764 C7.16336162,6.31432584 6.72796836,7.35365169 6.72796836,8.45617978 C6.72796836,9.20758427 6.93162004,9.93089888 7.317856,10.5699438 C7.29678858,10.5769663 7.28274364,10.5910112 7.26167622,10.5980337 C7.24060881,10.6120787 7.21251892,10.6261236 7.1914515,10.6331461 L7.1422942,10.661236 C7.10015937,10.6823034 7.06504701,10.7033708 7.02291218,10.7314607 C6.99482229,10.7455056 6.9667324,10.766573 6.94566499,10.780618 L6.9175751,10.8016854 C6.87544027,10.8227528 6.84032791,10.8508427 6.79819308,10.8789326 C6.77010319,10.9 6.7420133,10.9140449 6.71392341,10.9351124 L6.692856,10.9491573 C6.65072117,10.9772472 6.60858633,11.0053371 6.57347397,11.033427 C6.54538409,11.0544944 6.51027173,11.0755618 6.48218184,11.0966292 L6.47515937,11.1036517 C6.43302454,11.1317416 6.39791218,11.1598315 6.35577735,11.1879213 C6.32066499,11.2160112 6.2925751,11.2370787 6.25746274,11.2651685 C6.22235038,11.2932584 6.18021555,11.3213483 6.14510319,11.3564607 C6.10999083,11.3845506 6.08190094,11.405618 6.04678858,11.4337079 C6.01167622,11.4617978 5.97656386,11.4969101 5.9414515,11.525 C5.91336162,11.5530899 5.87824926,11.5811798 5.85015937,11.6092697 C5.81504701,11.644382 5.77993465,11.6724719 5.74482229,11.7075843 C5.7167324,11.7356742 5.68864251,11.763764 5.65353015,11.7918539 C5.61841779,11.8269663 5.58330544,11.8550562 5.55521555,11.8901685 L5.54819308,11.897191 C5.52010319,11.9252809 5.4920133,11.9533708 5.47094588,11.9814607 C5.43583353,12.016573 5.40774364,12.0516854 5.37263128,12.0867978 L5.35858633,12.1008427 C5.33751892,12.1219101 5.3164515,12.15 5.28836162,12.1710674 C5.26027173,12.1991573 5.23218184,12.2342697 5.20409195,12.2623596 L5.16897959,12.3044944 C5.14791218,12.3255618 5.13386723,12.3466292 5.11279982,12.3676966 C5.08470993,12.402809 5.06364251,12.4308989 5.03555263,12.4660112 L4.99341779,12.5151685 C4.97937285,12.536236 4.96532791,12.5502809 4.95128296,12.5713483 C4.92319308,12.6064607 4.89510319,12.6485955 4.8670133,12.6837079 L4.83190094,12.7258427 C4.817856,12.7398876 4.80381105,12.7609551 4.78976611,12.775 C4.74763128,12.8311798 4.71251892,12.8873596 4.67038409,12.9435393 L4.65633914,12.9575843 C4.64931667,12.9646067 4.6422942,12.9786517 4.63527173,12.9856742 C4.58611442,13.0558989 4.53695712,13.1331461 4.49482229,13.2033708 C4.48779982,13.2174157 4.47375487,13.2384831 4.4667324,13.2525281 L4.43864251,13.2946629 C4.41055263,13.3367978 4.38246274,13.3859551 4.36139532,13.4280899 C4.34735038,13.4491573 4.34032791,13.4702247 4.32628296,13.4912921 L4.29819308,13.5404494 C4.27712566,13.5825843 4.25605824,13.6176966 4.23499083,13.6598315 C4.22094588,13.6808989 4.21392341,13.7089888 4.19987847,13.7300562 L4.17881105,13.7651685 C4.15774364,13.8073034 4.13667622,13.8494382 4.11560881,13.891573 C4.10156386,13.9196629 4.08751892,13.9477528 4.08049645,13.9758427 L4.0664515,14.0109551 C4.04538409,14.0530899 4.03133914,14.0952247 4.01027173,14.1373596 C3.99622678,14.1724719 3.98218184,14.2005618 3.9681369,14.2356742 L3.96111442,14.2497191 C3.94004701,14.2918539 3.92600206,14.3410112 3.90493465,14.3831461 C3.8908897,14.4182584 3.87684476,14.4603933 3.86279982,14.4955056 C3.84875487,14.5376404 3.82768746,14.5867978 3.81364251,14.6289326 C3.79959757,14.6640449 3.78555263,14.7061798 3.77150768,14.7412921 C3.75746274,14.783427 3.74341779,14.8325843 3.72937285,14.8747191 C3.71532791,14.9168539 3.70830544,14.9519663 3.69426049,14.9941011 C3.68021555,15.0432584 3.6661706,15.0853933 3.65212566,15.1345506 C3.63808072,15.1766854 3.63105824,15.2117978 3.62403577,15.2539326 C3.60999083,15.3030899 3.60296836,15.3452247 3.58892341,15.394382 C3.58190094,15.4365169 3.567856,15.4716292 3.56083353,15.513764 C3.54678858,15.5629213 3.53976611,15.6120787 3.53274364,15.661236 L3.53274364,15.6752809 C3.52572117,15.7103933 3.51869869,15.7455056 3.51167622,15.780618 C3.50465375,15.8297753 3.49763128,15.8789326 3.48358633,15.9280899 L3.47656386,15.9561798 C3.46954139,15.9842697 3.46954139,16.0123596 3.46251892,16.0474719 C3.45549645,16.0966292 3.44847397,16.138764 3.4414515,16.1879213 L3.43442903,16.2370787 C3.43442903,16.2651685 3.42740656,16.2932584 3.42740656,16.3213483 C3.42038409,16.3705056 3.42038409,16.4196629 3.41336162,16.4688202 L3.42740656,16.4969101 C3.42740656,16.5179775 3.42038409,16.5460674 3.42038409,16.5671348 C3.41336162,16.6233146 3.41336162,16.6865169 3.41336162,16.7426966 L3.41336162,16.7848315 C3.41336162,16.8058989 3.41336162,16.8199438 3.41336162,16.8410112 C3.41336162,16.9393258 3.40633914,17.0235955 3.40633914,17.1148876 C3.40633914,17.2132022 3.40633914,17.3044944 3.41336162,17.4098315 C3.41336162,17.4449438 3.42038409,17.4730337 3.42740656,17.5081461 L3.42740656,17.5151685 C3.43442903,17.5432584 3.4414515,17.5783708 3.45549645,17.6064607 L3.46251892,17.6134831 C3.47656386,17.641573 3.49060881,17.6696629 3.51167622,17.6977528 L3.51869869,17.7047753 C3.53274364,17.7258427 3.55381105,17.7539326 3.567856,17.7679775 L3.63105824,17.8382022 C3.67319308,17.8803371 3.71532791,17.9294944 3.75746274,17.9716292 C5.64650768,19.8606742 8.16055263,20.9 10.8361144,20.9 C13.5116762,20.9 16.0257212,19.8606742 17.9147661,17.9716292 C17.9569009,17.9294944 17.9990358,17.8873596 18.0411706,17.8382022 L18.0903279,17.7820225 C19.8951032,15.8789326 20.8712268,13.3929775 20.8431369,10.766573 C20.815047,8.16123596 19.7686987,5.68230337 17.9147661,3.82837079 Z" id="Shape"></path>
        </g>
    </g>
</svg>