<?xml version="1.0" encoding="UTF-8"?>
<svg width="64px" height="64px" viewBox="0 0 64 64" version="1.1" xmlns="http://www.w3.org/2000/svg" xmlns:xlink="http://www.w3.org/1999/xlink">
    <g id="Page-1" stroke="none" stroke-width="1" fill="none" fill-rule="evenodd">
        <g id="compass" fill="#FFFFFF" fill-rule="nonzero">
            <path d="M54.5980746,9.37762712 C48.5610305,3.34405424 40.5300068,0.0138847458 31.9850305,0 C31.9676746,0 31.9509695,0 31.9338305,0 C24.533261,0 17.3240407,2.58429831 11.6295593,7.27972881 C11.0748203,7.73705763 10.9960678,8.55755932 11.4531797,9.11208136 C11.9105085,9.66682034 12.7310102,9.74557288 13.2855322,9.28846102 C18.5153085,4.97637966 25.1357288,2.60338983 31.9338305,2.60338983 C31.9492339,2.60338983 31.9655051,2.60338983 31.9809085,2.60338983 C48.1820203,2.62942373 61.3625492,15.8090847 61.3625492,31.982861 C61.3625492,48.1826712 48.1828881,61.3623322 31.983078,61.3623322 C15.8010576,61.3625492 2.62139661,48.1822373 2.60338983,31.9815593 C2.59948475,28.5554983 3.17873898,25.2003797 4.32488136,22.0094915 C4.56786441,21.3328271 4.21640678,20.5873898 3.53974237,20.3444068 C2.86372881,20.1014237 2.11764068,20.4528814 1.87465763,21.1295458 C0.626549153,24.6044203 -0.0041220339,28.2565424 1.1561356e-15,31.9843797 C0.0195254237,49.6190915 14.3670237,63.965939 31.982861,63.965939 C49.6184407,63.965939 63.965722,49.6184407 63.965722,31.983078 C63.965939,23.4428746 60.6390237,15.4146712 54.5980746,9.37762712 Z" id="Shape"></path>
            <path d="M41.3947661,10.1959593 C38.4182237,8.9083661 35.2516339,8.2555661 31.982861,8.2555661 C18.8995254,8.2555661 8.2555661,18.8997424 8.2555661,31.982861 C8.2555661,45.0659797 18.8997424,55.7103729 31.982861,55.7103729 C45.0659797,55.7103729 55.7103729,45.0661966 55.7103729,31.982861 C55.7103729,31.2641085 55.1274305,30.6811661 54.408678,30.6811661 L49.6481627,30.6811661 C48.9294102,30.6811661 48.3464678,31.2641085 48.3464678,31.982861 C48.3464678,32.7016136 48.9294102,33.2845559 49.6481627,33.2845559 L53.0657627,33.2845559 C52.4173017,43.8974915 43.8979254,52.4170847 33.2847729,53.0655458 L33.2847729,49.6479458 C33.2847729,48.9291932 32.7018305,48.3462508 31.983078,48.3462508 C31.2643254,48.3462508 30.6813831,48.9291932 30.6813831,49.6479458 L30.6813831,53.0655458 C20.0684475,52.4170847 11.5488542,43.8977085 10.9003932,33.2845559 L14.3179932,33.2845559 C15.0367458,33.2845559 15.6196881,32.7016136 15.6196881,31.982861 C15.6196881,31.2641085 15.0367458,30.6811661 14.3179932,30.6811661 L10.9003932,30.6811661 C11.5488542,20.0682305 20.0682305,11.5486373 30.6813831,10.9001763 L30.6813831,14.3177763 C30.6813831,15.0365288 31.2643254,15.6194712 31.983078,15.6194712 C32.7018305,15.6194712 33.2847729,15.0365288 33.2847729,14.3177763 L33.2847729,10.8997424 C35.7347797,11.0474847 38.109939,11.6115525 40.3614373,12.5854373 C41.0211797,12.8711593 41.7874441,12.5674305 42.0729492,11.9074712 C42.3584542,11.2475119 42.0545085,10.4814644 41.3947661,10.1959593 Z" id="Shape"></path>
            <path d="M41.2209898,21.0653288 L29.7007729,25.7314712 C28.8032542,26.0599322 27.9801492,26.5819119 27.2841763,27.2778847 C26.688,27.874061 26.2304542,28.5563661 25.9080678,29.2846644 C25.8755254,29.3399864 25.8453695,29.397261 25.8204203,29.4584407 L21.0499254,41.2363932 C20.8535864,41.7208407 20.9661831,42.2757966 21.3358644,42.645478 C21.5847051,42.8945356 21.917722,43.0268746 22.2565966,43.0268746 C22.4208271,43.0268746 22.5865763,42.9956339 22.7447322,42.9318508 L34.5237695,38.1626576 C34.5806102,38.139661 34.6339797,38.1118915 34.6856136,38.0819525 C35.4282305,37.7537085 36.1120542,37.2890034 36.7032407,36.6976 C37.333261,36.0675797 37.8092475,35.3412339 38.1335864,34.5658576 C38.1374915,34.5567458 38.1429153,34.5489356 38.1466034,34.5398237 L42.9157966,22.7607864 C43.1119186,22.276339 42.999322,21.7213831 42.6296407,21.3517017 C42.2603932,20.9815864 41.7054373,20.8689898 41.2209898,21.0653288 Z M31.9937085,27.9302508 C33.0775864,27.9302508 34.0963797,28.3522169 34.8626441,29.1186983 C36.4446373,30.7006915 36.4446373,33.2745763 34.8626441,34.8565695 C34.0963797,35.6228339 33.0773695,36.0450169 31.9937085,36.0450169 C30.9100475,36.0450169 29.8912542,35.6230508 29.1247729,34.8565695 C27.5427797,33.2745763 27.5427797,30.7006915 29.1247729,29.1186983 C29.4979254,28.7455458 29.9318237,28.4557017 30.4032542,28.2545898 C30.4088949,28.2524203 30.4145356,28.2509017 30.4201763,28.2487322 L30.5138983,28.2107661 C30.9794712,28.0283119 31.4788881,27.9302508 31.9937085,27.9302508 Z M26.2432542,35.3486102 C26.5248542,35.8304542 26.871322,36.2845288 27.2839593,36.6971661 C27.6926915,37.1058983 28.1458983,37.4538847 28.6318644,37.7389559 L24.6167864,39.3647729 L26.2432542,35.3486102 Z M37.7374373,28.6138576 C37.457139,28.1365695 37.1128407,27.6868339 36.7036746,27.2776678 C36.2988475,26.8728407 35.8506305,26.5274576 35.3700881,26.2439051 L39.3495864,24.6319729 L37.7374373,28.6138576 Z" id="Shape"></path>
        </g>
    </g>
</svg>