<?xml version="1.0" encoding="UTF-8"?>
<svg width="88px" height="64px" viewBox="0 0 88 64" version="1.1" xmlns="http://www.w3.org/2000/svg" xmlns:xlink="http://www.w3.org/1999/xlink">
    <g id="Page-1" stroke="none" stroke-width="1" fill="none" fill-rule="evenodd">
        <g id="error" fill="#FFFFFF" fill-rule="nonzero">
            <path d="M85.6618076,52.303207 L82.7583819,52.303207 L82.7583819,7.29409623 C82.7532799,3.2868076 79.5054665,0.0393586006 75.4989067,0.0349854227 L11.6155248,0.0349854227 C7.60787172,0.0393586006 4.3596939,3.2868076 4.35568513,7.29409623 L4.35568513,52.303207 L1.45189504,52.303207 C0.650145773,52.303207 0,52.9533528 0,53.755102 L0,58.1107872 C0,61.3177843 2.59948977,63.9187318 5.80758017,63.9187318 L81.3064869,63.9187318 C84.5134839,63.9187318 87.1133382,61.3177843 87.1133382,58.1107872 L87.1133382,53.755102 C87.1133382,52.9533528 86.4639213,52.303207 85.6618076,52.303207 Z M7.25947522,7.29409623 C7.25947522,4.88848401 9.20881922,2.9384111 11.6155248,2.9384111 L75.4989067,2.9384111 C77.9041545,2.9384111 79.8542274,4.88848401 79.8542274,7.29409623 L79.8542274,52.303207 L76.9508017,52.303207 L76.9508017,7.29409623 C76.9508017,6.49234696 76.300656,5.84220119 75.4989067,5.84220119 L11.6155248,5.84220119 C10.8137755,5.84220119 10.1636297,6.49234696 10.1636297,7.29409623 L10.1636297,52.303207 L7.25947522,52.303207 L7.25947522,7.29409623 Z M74.0462828,8.74599128 L74.0462828,52.303207 L52.4395044,52.303207 C50.8932216,52.2977405 49.4781341,53.1720117 48.7926385,54.5572157 C48.5936589,54.956997 48.1862245,55.2084548 47.7408892,55.2066327 L39.372449,55.2066327 C38.9267493,55.2084548 38.5193148,54.956997 38.321793,54.5572157 C37.6348397,53.1720117 36.220481,52.2977405 34.6738338,52.303207 L13.0670554,52.303207 L13.0670554,8.74599128 L74.0462828,8.74599128 Z M84.2099125,58.1107872 C84.2099125,59.7139213 82.9103498,61.0142129 81.3064869,61.0142129 L5.80758017,61.0142129 C4.20335282,61.0142129 2.90342568,59.7139213 2.90342568,58.1107872 L2.90342568,55.2066186 L34.6738338,55.2066327 C35.1191691,55.204446 35.5266035,55.4562682 35.7255831,55.8553207 C36.4110787,57.2408892 37.8261662,58.1151603 39.372449,58.1107872 L47.7408892,58.1107872 C49.2875364,58.1151603 50.7018951,57.2408892 51.3888484,55.8553207 C51.5863702,55.4562682 51.9938047,55.204446 52.4395044,55.2066327 L84.2099125,55.2066186 L84.2099125,58.1107872 Z" id="Shape"></path>
            <path d="M27.295554,46.4952624 L59.8330904,46.4952624 C60.8862974,46.4952624 61.8571429,45.9249271 62.3695336,45.0040088 C62.8811953,44.0834548 62.8556851,42.9577259 62.3002915,42.0623178 L46.039723,15.7827988 C45.5098397,14.9289358 44.5765307,14.4085277 43.5714286,14.4085277 C42.5655977,14.4085277 41.6322887,14.9289358 41.1024052,15.7827988 L24.8334548,42.0623178 C24.2791546,42.9573615 24.2518222,44.0816327 24.7631196,45.0018221 C25.2744169,45.9223761 26.2434402,46.4930758 27.295554,46.4952624 Z M43.5568513,17.3123178 L59.8247085,43.5914723 L27.295554,43.5914723 L43.5568513,17.3123178 Z" id="Shape"></path>
            <polygon id="Shape" points="42.1049563 26.1690962 45.0087464 26.1690962 45.0087464 34.8801021 42.1049563 34.8801021"></polygon>
            <polygon id="Shape" points="42.1049563 37.7842566 45.0087464 37.7842566 45.0087464 40.6880466 42.1049563 40.6880466"></polygon>
        </g>
    </g>
</svg>