<?xml version="1.0" encoding="UTF-8"?>
<svg width="30px" height="30px" viewBox="0 0 30 30" version="1.1" xmlns="http://www.w3.org/2000/svg" xmlns:xlink="http://www.w3.org/1999/xlink">
    <g id="Page-1" stroke="none" stroke-width="1" fill="none" fill-rule="evenodd">
        <g id="down2" fill="#FFFFFF" fill-rule="nonzero">
            <path d="M27.958975,7.46261958 C26.6190205,5.16703873 24.8014579,3.34947608 22.5058087,2.00958998 C20.2097494,0.669772212 17.7032802,0 14.9844875,0 C12.2659681,0 9.75874716,0.669772212 7.46309796,2.00958998 C5.16731207,3.34927107 3.34974943,5.16683371 2.00979499,7.46261958 C0.669772212,9.75854214 0,12.2657631 0,14.9840774 C0,17.7025285 0.66997722,20.2093394 2.00958998,22.5053986 C3.34947608,24.8009795 5.16703873,26.6185421 7.4628246,27.9585649 C9.75874716,29.2983143 12.2657631,29.9681549 14.9842141,29.9681549 C17.7026651,29.9681549 20.2099544,29.2983143 22.5057403,27.9585649 C24.8013895,26.6190205 26.6188838,24.8009795 27.9587016,22.5053986 C29.2983143,20.2095444 29.9680182,17.7023918 29.9680182,14.9840774 C29.9680865,12.2654897 29.2983143,9.75820044 27.958975,7.46261958 Z M24.173713,20.3103417 C23.2242369,21.9361504 21.9366287,23.2237585 20.31082,24.173713 C18.6850114,25.1231891 16.9096127,25.5974488 14.9842825,25.5974488 C13.0594305,25.5974488 11.2838952,25.1231891 9.65788152,24.173713 C8.03207292,23.2237585 6.7444647,21.9361504 5.79498861,20.3103417 C4.84530752,18.684533 4.37063782,16.9090661 4.37063782,14.9840774 C4.37063782,13.0589522 4.84551253,11.2834852 5.79498861,9.65767656 C6.74425968,8.0318679 8.03220954,6.74398632 9.65788152,5.79457859 C11.2836902,4.84503417 13.0591572,4.3704328 14.9842825,4.3704328 C16.9095444,4.3704328 18.6850114,4.84503417 20.31082,5.79457859 C21.9366287,6.74405466 23.2243052,8.0318679 24.173713,9.65767656 C25.1232574,11.2834852 25.5977221,13.0589522 25.5977221,14.9840774 C25.5977221,16.9090661 25.1232574,18.684533 24.173713,20.3103417 Z" id="Shape"></path>
            <path d="M21.2277677,14.9840774 L17.4820046,14.9840774 L17.4820046,8.11592256 C17.4820046,7.93373574 17.423098,7.78428246 17.3061731,7.66715262 C17.1897266,7.55036448 17.04,7.49166288 16.8580865,7.49166288 L13.1116401,7.49166288 C12.92959,7.49166288 12.7799317,7.55036448 12.6628702,7.66715262 C12.5457403,7.7843508 12.4872437,7.93373574 12.4872437,8.11592256 L12.4872437,14.9838041 L8.7410706,14.9838041 C8.45501136,14.9838041 8.25984054,15.1139863 8.15569476,15.3739408 C8.05154898,15.6213895 8.09733486,15.8486788 8.29230066,16.0570387 L14.5357859,22.3003873 C14.6790205,22.4173121 14.8284738,22.4758087 14.9845558,22.4758087 C15.1404328,22.4758087 15.2900911,22.4173121 15.4334624,22.3003873 L21.6574032,16.0767198 C21.7873804,15.9207062 21.8522323,15.7640091 21.8522323,15.6084738 C21.8522323,15.4265603 21.7938041,15.2768337 21.6764009,15.1594988 C21.5596127,15.0425057 21.4099544,14.9840774 21.2277677,14.9840774 Z" id="Shape"></path>
        </g>
    </g>
</svg>