<?xml version="1.0" encoding="UTF-8"?>
<svg width="28px" height="30px" viewBox="0 0 28 30" version="1.1" xmlns="http://www.w3.org/2000/svg" xmlns:xlink="http://www.w3.org/1999/xlink">
    <g id="Page-1" stroke="none" stroke-width="1" fill="none" fill-rule="evenodd">
        <g id="down1" fill="#FFFFFF" fill-rule="nonzero">
            <path d="M21.2129629,13.5055556 C21.0629629,13.1740741 20.7333333,12.9629629 20.3703704,12.9629629 L16.6666667,12.9629629 L16.6666667,0.925925928 C16.6666667,0.414814815 16.2518518,0 15.7407407,0 L12.0370371,0 C11.5259259,0 11.1111111,0.414814815 11.1111111,0.925925928 L11.1111111,12.9629629 L7.40740739,12.9629629 C7.04444444,12.9629629 6.71481483,13.1759259 6.56481483,13.5055556 C6.41296294,13.8370371 6.47222222,14.2240741 6.71111111,14.4981482 L13.1925926,21.9055556 C13.3685185,22.1074074 13.6222222,22.2222222 13.8888889,22.2222222 C14.1555556,22.2222222 14.4092593,22.1055556 14.5851852,21.9055556 L21.0666667,14.4981482 C21.3074074,14.2259259 21.3629629,13.8370371 21.2129629,13.5055556 Z" id="Shape"></path>
            <path d="M24.0740741,20.3703704 L24.0740741,25.9259259 L3.70370371,25.9259259 L3.70370371,20.3703704 L0,20.3703704 L0,27.7777778 C0,28.8018518 0.829629628,29.6296296 1.85185185,29.6296296 L25.9259259,29.6296296 C26.95,29.6296296 27.7777778,28.8018518 27.7777778,27.7777778 L27.7777778,20.3703704 L24.0740741,20.3703704 Z" id="Shape"></path>
        </g>
    </g>
</svg>