<?xml version="1.0" encoding="UTF-8"?>
<svg width="40px" height="36px" viewBox="0 0 40 36" version="1.1" xmlns="http://www.w3.org/2000/svg" xmlns:xlink="http://www.w3.org/1999/xlink">
    <g id="Page-1" stroke="none" stroke-width="1" fill="none" fill-rule="evenodd">
        <g id="email" fill="#FFFFFF" fill-rule="nonzero">
            <polygon id="Shape" points="28.2987216 25.8279588 25.1981856 22.7273402 23.4486598 24.476866 28.2987216 29.3270103 34.6696082 22.9560412 32.9200825 21.2065155"></polygon>
            <path d="M35.0515464,15.8243299 L35.0515464,0.0423917526 L0,0.0423917526 L0,26.0664742 L18.7228866,26.0664742 C19.3379794,31.3717938 23.8578144,35.504 29.3253608,35.504 C35.2113814,35.504 40,30.7153814 40,24.8293608 C40,21.0489072 38.0244124,17.7214021 35.0515464,15.8243299 Z M29.3253608,14.1548041 C27.7405361,14.1548041 26.2355464,14.502433 24.8818969,15.124701 L22.5819381,13.054433 L32.5773196,4.05748454 L32.5773196,14.6618557 C31.5515052,14.3330309 30.4589691,14.1548041 29.3253608,14.1548041 Z M17.5257732,14.2766186 L4.46070103,2.51661856 L30.5908454,2.51661856 L17.5257732,14.2766186 Z M12.4696907,13.054433 L2.4742268,22.0513814 L2.4742268,4.05748454 L12.4696907,13.054433 Z M14.3188454,14.7189278 L17.5257732,17.6055258 L20.7327835,14.7189278 L22.6861031,16.4771134 C20.5331959,18.192 19.0559175,20.7200825 18.7229691,23.5922474 L4.46070103,23.5922474 L14.3188454,14.7189278 Z M29.3253608,33.0297732 C24.8036289,33.0297732 21.1249485,29.3510928 21.1249485,24.8293608 C21.1249485,20.3076289 24.8036289,16.6290309 29.3253608,16.6290309 C33.8470928,16.6290309 37.5257732,20.3076289 37.5257732,24.8293608 C37.5257732,29.3510928 33.8470928,33.0297732 29.3253608,33.0297732 Z" id="Shape"></path>
        </g>
    </g>
</svg>