<?xml version="1.0" encoding="UTF-8"?>
<svg width="79px" height="64px" viewBox="0 0 79 64" version="1.1" xmlns="http://www.w3.org/2000/svg" xmlns:xlink="http://www.w3.org/1999/xlink">
    <g id="Page-1" stroke="none" stroke-width="1" fill="none" fill-rule="evenodd">
        <g id="001-computer" fill="#FFFFFF" fill-rule="nonzero">
            <rect id="Rectangle-path" x="52.2666667" y="53.3333333" width="2.13333333" height="2.13333333"></rect>
            <path d="M77.8666667,55.4666667 L76.8,55.4666667 L76.8,26.6666667 C76.8,24.3102667 74.8897333,22.4 72.5333333,22.4 L64,22.4 L64,8.53333333 C63.9946667,3.82266667 60.1773333,0.00533333333 55.4666667,0 L8.53333333,0 C3.82266667,0.00533333333 0.00533333333,3.82266667 0,8.53333333 L0,42.6666667 C0.00533333333,47.3773333 3.82266667,51.1946667 8.53333333,51.2 L18.9002667,51.2 L17.3002667,57.6 L7.46666667,57.6 C5.69933333,57.6 4.26666667,59.0326667 4.26666667,60.8 C4.26666667,62.5673333 5.69933333,64 7.46666667,64 L74.6666667,64 C77.0230667,64 78.9333333,62.0897333 78.9333333,59.7333333 L78.9333333,56.5333333 C78.9333333,55.9442667 78.4557333,55.4666667 77.8666667,55.4666667 Z M72.5333333,24.5333333 C73.7116,24.5333333 74.6666667,25.4884 74.6666667,26.6666667 L74.6666667,55.4666667 L62.9333333,55.4666667 C62.6504,55.4666667 62.3792,55.5792 62.1792,55.7792 L60.3584,57.6 L46.3082667,57.6 L44.4874667,55.7792 C44.2874667,55.5792 44.0162667,55.4666667 43.7333333,55.4666667 L32,55.4666667 L32,26.6666667 C32,25.4884 32.9550667,24.5333333 34.1333333,24.5333333 L72.5333333,24.5333333 Z M29.8666667,26.6666667 L29.8666667,40.5333333 L9.6,40.5333333 C8.42173333,40.5333333 7.46666667,39.5782667 7.46666667,38.4 L7.46666667,9.6 C7.46666667,8.42173333 8.42173333,7.46666667 9.6,7.46666667 L54.3541333,7.46666667 C55.5324,7.46666667 56.4874667,8.42173333 56.4874667,9.6 L56.4874667,22.4 L34.1333333,22.4 C31.7769333,22.4 29.8666667,24.3102667 29.8666667,26.6666667 Z M8.53333333,49.0666667 C5.00013333,49.0632 2.1368,46.1998667 2.13333333,42.6666667 L2.13333333,8.53333333 C2.1368,5.00013333 5.00013333,2.1368 8.53333333,2.13333333 L55.4666667,2.13333333 C58.9998667,2.1368 61.8632,5.00013333 61.8666667,8.53333333 L61.8666667,22.4 L58.6208,22.4 L58.6208,9.6 C58.6208,7.2436 56.7105333,5.33333333 54.3541333,5.33333333 L9.6,5.33333333 C7.2436,5.33333333 5.33333333,7.2436 5.33333333,9.6 L5.33333333,38.4 C5.33333333,40.7564 7.2436,42.6666667 9.6,42.6666667 L29.8666667,42.6666667 L29.8666667,49.0666667 L8.53333333,49.0666667 Z M7.46666667,61.8666667 C6.8776,61.8666667 6.4,61.3890667 6.4,60.8 C6.4,60.2109333 6.8776,59.7333333 7.46666667,59.7333333 L27.7333333,59.7333333 C27.7377333,60.4845333 27.9425333,61.2209333 28.3264,61.8666667 L7.46666667,61.8666667 Z M27.7333333,56.5333333 L27.7333333,57.6 L19.4997333,57.6 L21.0997333,51.2 L29.8666667,51.2 L29.8666667,55.4666667 L28.8,55.4666667 C28.2109333,55.4666667 27.7333333,55.9442667 27.7333333,56.5333333 Z M76.8,59.7333333 C76.8,60.9116 75.8449333,61.8666667 74.6666667,61.8666667 L32,61.8666667 C30.8217333,61.8666667 29.8666667,60.9116 29.8666667,59.7333333 L29.8666667,57.6 L43.2917333,57.6 L45.1125333,59.4208 C45.3125333,59.6208 45.5837333,59.7333333 45.8666667,59.7333333 L60.8,59.7333333 C61.0829333,59.7333333 61.3541333,59.6208 61.5541333,59.4208 L63.3749333,57.6 L76.8,57.6 L76.8,59.7333333 Z" id="Shape"></path>
            <path d="M71.4666667,26.6666667 L35.2,26.6666667 C34.6109333,26.6666667 34.1333333,27.1442667 34.1333333,27.7333333 L34.1333333,50.1333333 C34.1333333,50.7224 34.6109333,51.2 35.2,51.2 L71.4666667,51.2 C72.0557333,51.2 72.5333333,50.7224 72.5333333,50.1333333 L72.5333333,27.7333333 C72.5333333,27.1442667 72.0557333,26.6666667 71.4666667,26.6666667 Z M70.4,49.0666667 L36.2666667,49.0666667 L36.2666667,28.8 L70.4,28.8 L70.4,49.0666667 Z" id="Shape"></path>
            <path d="M12.8192,10.6666667 C11.6309333,10.6678667 10.6678667,11.6309333 10.6666667,12.8192 L10.6666667,19.2 L12.8,19.2 L12.8192,12.8 L28.8,12.8 L28.8,10.6666667 L12.8192,10.6666667 Z" id="Shape"></path>
            <rect id="Rectangle-path" x="30.9333333" y="10.6666667" width="2.13333333" height="2.13333333"></rect>
            <path d="M40.5525333,30.9333333 C39.3642667,30.9345333 38.4012,31.8976 38.4,33.0858667 L38.4,38.4 L40.5333333,38.4 L40.5525333,33.0666667 L48,33.0666667 L48,30.9333333 L40.5525333,30.9333333 Z" id="Shape"></path>
            <rect id="Rectangle-path" x="50.1333333" y="30.9333333" width="2.13333333" height="2.13333333"></rect>
        </g>
    </g>
</svg>