<?xml version="1.0" encoding="UTF-8"?>
<svg width="37px" height="64px" viewBox="0 0 37 64" version="1.1" xmlns="http://www.w3.org/2000/svg" xmlns:xlink="http://www.w3.org/1999/xlink">
    <g id="Page-1" stroke="none" stroke-width="1" fill="none" fill-rule="evenodd">
        <g id="002-smartphone" fill="#FFFFFF" fill-rule="nonzero">
            <path d="M23.583375,3.2 L12.91675,3.2 C12.328,3.2 11.850125,3.677875 11.850125,4.266625 C11.850125,4.855375 12.328,5.33325 12.91675,5.33325 L23.583375,5.33325 C24.172125,5.33325 24.65,4.855375 24.65,4.266625 C24.65,3.677875 24.172125,3.2 23.583375,3.2 Z" id="Shape"></path>
            <path d="M31.05,3.2 L29.983375,3.2 C29.394625,3.2 28.91675,3.677875 28.91675,4.266625 C28.91675,4.855375 29.394625,5.33325 29.983375,5.33325 L31.05,5.33325 C31.63875,5.33325 32.116625,4.855375 32.116625,4.266625 C32.116625,3.677875 31.63875,3.2 31.05,3.2 Z" id="Shape"></path>
            <path d="M19.57475,54.4 L16.92625,54.4 C15.303875,54.4 13.983375,55.7205 13.983375,57.342875 L13.983375,57.858125 C13.983375,59.4805 15.303875,60.8 16.92525,60.8 L19.57375,60.8 C21.196125,60.8 22.516625,59.4805 22.516625,57.858125 L22.516625,57.342875 C22.516625,55.7205 21.196125,54.4 19.57475,54.4 Z M20.383375,57.858125 C20.383375,58.304 20.02075,58.666625 19.574875,58.666625 L16.92625,58.666625 C16.479375,58.666625 16.116625,58.304 16.116625,57.858125 L16.116625,57.342875 C16.116625,56.896 16.47925,56.53325 16.92625,56.53325 L19.57375,56.53325 C20.02075,56.53325 20.383375,56.895875 20.383375,57.342875 L20.383375,57.858125 Z" id="Shape"></path>
            <path d="M32.528375,0 L3.972625,0 C1.84675,0 0.116625,1.730125 0.116625,3.856 L0.116625,60.144 C0.116625,62.269875 1.84675,64 3.972625,64 L32.52725,64 C34.653125,64 36.38325,62.269875 36.38325,60.145125 L36.38325,3.856 C36.383375,1.730125 34.65325,0 32.528375,0 Z M34.25,60.144 C34.25,61.093375 33.47775,61.866625 32.528375,61.866625 L3.972625,61.866625 C3.02225,61.866625 2.25,61.09325 2.25,60.145 L2.25,3.856 C2.25,2.906625 3.02225,2.133375 3.972625,2.133375 L32.52725,2.133375 C33.477625,2.133375 34.249875,2.90675 34.249875,3.856 L34.249875,60.144 L34.25,60.144 Z" id="Shape"></path>
            <path d="M35.316625,6.4 L1.183375,6.4 C0.594625,6.4 0.11675,6.877875 0.11675,7.466625 L0.11675,52.266625 C0.11675,52.855375 0.594625,53.33325 1.183375,53.33325 L35.31675,53.33325 C35.9055,53.33325 36.383375,52.855375 36.383375,52.266625 L36.383375,7.466625 C36.383375,6.877875 35.9055,6.4 35.316625,6.4 Z M34.25,51.2 L2.25,51.2 L2.25,8.533375 L34.25,8.533375 L34.25,51.2 Z" id="Shape"></path>
        </g>
    </g>
</svg>